<svg xmlns="http://www.w3.org/2000/svg" viewBox="0 0 18.68 18.13"><defs><style>.cls-1{fill:#ffc91b;}</style></defs><title>2</title><g id="Слой_2" data-name="Слой 2"><g id="Layer_3" data-name="Layer 3"><path class="cls-1" d="M2.88,18.13a12.55,12.55,0,0,0,6.87-1.85,12.56,12.56,0,0,0,6.87,1.85h2.05v-3l-2.05.06a10.27,10.27,0,0,1-4.51-1A11.61,11.61,0,0,0,15,6.7C15,2.76,12.82,0,9.74,0S4.55,2.76,4.55,6.7a11.61,11.61,0,0,0,2.84,7.55,10.27,10.27,0,0,1-4.51,1L0,15.18v3ZM9.77,2.92C11.33,2.92,12,4.82,12,6.7a8.65,8.65,0,0,1-2.14,5.66l-.13.15-.13-.15A8.65,8.65,0,0,1,7.47,6.7C7.47,4.82,8.17,2.92,9.77,2.92Z"/></g></g></svg>