<svg xmlns="http://www.w3.org/2000/svg" viewBox="0 0 18.68 18.13"><defs><style>.cls-1{fill:#ffc91b;}</style></defs><title>1</title><g id="Слой_2" data-name="Слой 2"><g id="Layer_3" data-name="Layer 3"><path class="cls-1" d="M15.8,0A12.55,12.55,0,0,0,8.92,1.85,12.56,12.56,0,0,0,2.05,0H0V3l2.05-.06a10.27,10.27,0,0,1,4.51,1,11.61,11.61,0,0,0-2.84,7.55c0,3.95,2.13,6.7,5.21,6.7s5.19-2.76,5.19-6.7a11.61,11.61,0,0,0-2.84-7.55,10.27,10.27,0,0,1,4.51-1l2.88,0V0ZM8.91,15.21c-1.57,0-2.27-1.9-2.27-3.78A8.65,8.65,0,0,1,8.79,5.76l.13-.15.13.15a8.65,8.65,0,0,1,2.15,5.66C11.2,13.31,10.5,15.21,8.91,15.21Z"/></g></g></svg>