<?xml version="1.0" encoding="UTF-8"?>
<svg width="11px" height="25px" viewBox="0 0 11 25" version="1.1" xmlns="http://www.w3.org/2000/svg" xmlns:xlink="http://www.w3.org/1999/xlink">
    <!-- Generator: Sketch 48.1 (47250) - http://www.bohemiancoding.com/sketch -->
    <title>razdelitel-right</title>
    <desc>Created with Sketch.</desc>
    <defs></defs>
    <g id="Page-1" stroke="none" stroke-width="1" fill="none" fill-rule="evenodd">
        <g id="razdelitel-right" fill="#DBC27D" fill-rule="nonzero">
            <path d="M1.13,12.5 C3.98702605,11.1572171 7.30039827,11.1903509 10.13,12.59 C10.35,12.68 10.64,12.41 10.41,12.22 C7.59031723,10.2186308 3.80823266,10.2387483 1.01,12.27 C0.91,12.35 1.01,12.54 1.14,12.49 L1.13,12.5 Z" id="Shape"></path>
            <path d="M5.45,10.92 C9.23,9.06 10.8,3.06 6.66,0.64 C3.24,-1.36 -1.14,2.08 0.85,5.82 C1.51020512,7.31386379 3.16636729,8.09724127 4.74,7.66 C5.38030204,7.44529799 5.88805632,6.95080923 6.11963003,6.31641403 C6.35120374,5.68201883 6.28141296,4.97670841 5.93,4.4 C5.28,3.45 3.4,3.27 3.21,4.7 C3.14009925,5.15389261 3.38833824,5.59704946 3.81190446,5.77452135 C4.23547069,5.95199323 4.7254681,5.8181533 5,5.45 C5.11171687,5.32796979 5.1193765,5.14323792 5.01814534,5.01237813 C4.91691419,4.88151834 4.73618261,4.84252307 4.59,4.92 C4.21,6.84 3.57,7.37 2.67,6.51 C2.02864816,6.20845639 1.56588652,5.62352567 1.42,4.93 C1.10152565,3.98449361 1.27393764,2.94252549 1.88,2.15 C2.52076105,1.37768289 3.4629667,0.918560382 4.46607382,0.889845483 C5.46918094,0.861130585 6.4361078,1.26560235 7.12,2 C10.04,4.88 7.62,8.56 5.27,10.69 C5.14,10.81 5.27,11 5.45,10.93 L5.45,10.92 Z" id="Shape"></path>
            <path d="M1,12.47 C3.80896902,14.4862753 7.59103098,14.4862753 10.4,12.47 C10.62,12.29 10.33,12.02 10.12,12.11 C7.28865999,13.5023599 3.97861821,13.5354603 1.12,12.2 C1,12.2 0.89,12.34 0.99,12.42 L1,12.47 Z" id="Shape"></path>
            <path d="M5.27,14.07 C7.62,16.19 10.03,19.89 7.12,22.76 C5.78477741,24.1715258 3.5688796,24.2645935 2.12,22.97 C1.30988892,22.1418338 1.02160373,20.9348798 1.37,19.83 L2.08,18.61 C3.00666667,17.4966667 3.83,17.91 4.55,19.85 C4.9,20.05 5.2,19.6 4.96,19.31 C4.6854681,18.9418467 4.19547069,18.8080068 3.77190446,18.9854787 C3.34833824,19.1629505 3.10009925,19.6061074 3.17,20.06 C3.35,21.5 5.24,21.32 5.89,20.36 C6.23560564,19.7914032 6.30794452,19.0977673 6.08709702,18.4700955 C5.86624953,17.8424237 5.37550595,17.3469094 4.75,17.12 C3.16224727,16.6362626 1.46394556,17.4187713 0.8,18.94 C-1.13,22.68 3.17,26.14 6.62,24.12 C10.75,21.69 9.18,15.69 5.4,13.84 C5.25,13.77 5.08,13.96 5.22,14.08 L5.27,14.07 Z" id="Shape"></path>
        </g>
    </g>
</svg>