<?xml version="1.0" encoding="UTF-8"?>
<svg width="11px" height="25px" viewBox="0 0 11 25" version="1.1" xmlns="http://www.w3.org/2000/svg" xmlns:xlink="http://www.w3.org/1999/xlink">
    <!-- Generator: Sketch 48.1 (47250) - http://www.bohemiancoding.com/sketch -->
    <title>razdelitel-left</title>
    <desc>Created with Sketch.</desc>
    <defs></defs>
    <g id="Page-1" stroke="none" stroke-width="1" fill="none" fill-rule="evenodd">
        <g id="razdelitel-left" transform="translate(-1.000000, -1.000000)" fill="#DBC27D" fill-rule="nonzero">
            <path d="M10.35,13.21 C7.49297395,14.5527829 4.17960173,14.5196491 1.35,13.12 C1.13,13.03 0.84,13.3 1.07,13.49 C3.88968277,15.4913692 7.67176734,15.4712517 10.47,13.44 C10.57,13.36 10.47,13.17 10.34,13.22 L10.35,13.21 Z" id="Shape"></path>
            <path d="M6,14.79 C2.26,16.64 0.69,22.64 4.82,25.07 C8.24,27.07 12.62,23.63 10.63,19.89 C9.98773033,18.3765182 8.32676533,17.5695198 6.74,18 C6.09969796,18.214702 5.59194368,18.7091908 5.36036997,19.343586 C5.12879626,19.9779812 5.19858704,20.6832916 5.55,21.26 C6.2,22.21 8.08,22.39 8.27,20.96 C8.33990075,20.5061074 8.09166176,20.0629505 7.66809554,19.8854787 C7.24452931,19.7080068 6.7545319,19.8418467 6.48,20.21 C6.36828313,20.3320302 6.3606235,20.5167621 6.46185466,20.6476219 C6.56308581,20.7784817 6.74381739,20.8174769 6.89,20.74 C7.27,18.82 7.91,18.29 8.81,19.15 C9.45135184,19.4515436 9.91411348,20.0364743 10.06,20.73 C10.3784743,21.6755064 10.2060624,22.7174745 9.6,23.51 C8.95923895,24.2823171 8.0170333,24.7414396 7.01392618,24.7701545 C6.01081906,24.7988694 5.0438922,24.3943976 4.36,23.66 C1.45,20.83 3.87,17.15 6.22,15 C6.35,14.88 6.22,14.69 6.04,14.76 L6,14.79 Z" id="Shape"></path>
            <path d="M10.48,13.24 C7.67103098,11.2237247 3.88896902,11.2237247 1.08,13.24 C0.86,13.42 1.15,13.69 1.36,13.6 C4.19134001,12.2076401 7.50138179,12.1745397 10.36,13.51 C10.48,13.51 10.59,13.37 10.49,13.29 L10.48,13.24 Z" id="Shape"></path>
            <path d="M6.22,11.64 C3.87,9.52 1.46,5.82 4.37,3 C5.70522259,1.58847418 7.9211204,1.49540647 9.37,2.79 C10.1801111,3.61816623 10.4683963,4.82512023 10.12,5.93 L9.36,7.11 C8.45333333,8.22333333 7.63,7.81333333 6.89,5.88 C6.54,5.68 6.24,6.13 6.48,6.42 C6.7545319,6.7881533 7.24452931,6.92199323 7.66809554,6.74452135 C8.09166176,6.56704946 8.33990075,6.12389261 8.27,5.67 C8.09,4.22 6.2,4.4 5.55,5.36 C5.20439436,5.92859677 5.13205548,6.62223267 5.35290298,7.24990451 C5.57375047,7.87757634 6.06449405,8.37309064 6.69,8.6 C8.27775273,9.08373738 9.97605444,8.30122874 10.64,6.78 C12.57,3 8.27,-0.43 4.82,1.6 C0.69,4 2.26,10 6,11.88 C6.15,11.95 6.32,11.76 6.18,11.64 L6.22,11.64 Z" id="Shape"></path>
        </g>
    </g>
</svg>