<svg xmlns="http://www.w3.org/2000/svg" width="14" height="18" viewBox="0 0 14 18">
    <path fill="#FFF" fill-rule="evenodd" d="M2 0h10a2 2 0 0 1 2 2v14a2 2 0 0 1-2 2H2a2 2 0 0 1-2-2V2a2 2 0 0 1 2-2zm1 12a1 1 0 1 0 0-2 1 1 0 0 0 0 2zm0 3a1 1 0 1 0 0-2 1 1 0 0 0 0 2zm0-6a1 1 0 1 0 0-2 1 1 0 0 0 0 2zm4 3a1 1 0 1 0 0-2 1 1 0 0 0 0 2zm0-3a1 1 0 1 0 0-2 1 1 0 0 0 0 2zM2 2v3h10V2H2zm5 13a1 1 0 1 0 0-2 1 1 0 0 0 0 2zm4-3a1 1 0 1 0 0-2 1 1 0 0 0 0 2zm0 3a1 1 0 1 0 0-2 1 1 0 0 0 0 2zm0-6a1 1 0 1 0 0-2 1 1 0 0 0 0 2z"/>
</svg>
