<svg xmlns="http://www.w3.org/2000/svg" viewBox="0 0 908.28 253.28"><defs><style>.cls-1{fill:#00bc96;}.cls-2{fill:#ffd205;}.cls-3{fill:#9e00e2;}.cls-4{fill:#f26400;}.cls-5{fill:#f70014;}.cls-6{fill:#fff;}.cls-7{fill:#14b9d5;}</style></defs><title>ogo-ocrimea</title><g id="Слой_2" data-name="Слой 2"><g id="Objects"><path class="cls-1" d="M0,103.14H36.37a68.94,68.94,0,0,1,8-30L12.89,55A105.12,105.12,0,0,0,0,103.14Z"/><path class="cls-2" d="M44.38,138.11a68.94,68.94,0,0,1-8-30H0A105.13,105.13,0,0,0,12.89,156.3Z"/><path class="cls-3" d="M103.14,0A105.13,105.13,0,0,0,55,12.89L73.16,44.38a68.94,68.94,0,0,1,30-8Z"/><path class="cls-4" d="M68.83,164.38a69.67,69.67,0,0,1-21.94-21.94l-31.5,18.19a106.21,106.21,0,0,0,35.26,35.26Z"/><path class="cls-5" d="M103.14,211.27V174.9a68.93,68.93,0,0,1-30-8L55,198.38A105.14,105.14,0,0,0,103.14,211.27Z"/><path class="cls-6" d="M108.14,0V36.37a69.31,69.31,0,0,1,0,138.54v36.37A105.66,105.66,0,0,0,108.14,0Z"/><path class="cls-7" d="M46.89,68.83A69.68,69.68,0,0,1,68.83,46.89L50.65,15.39A106.21,106.21,0,0,0,15.39,50.65Z"/><path class="cls-6" d="M375.14,190.2h-30a12,12,0,0,1-7.56-2.35,23,23,0,0,1-5.7-7l-30.34-51.7a19.33,19.33,0,0,0-2.79-3.83,13.36,13.36,0,0,0-3.18-2.46,11.6,11.6,0,0,0-3.83-1.26,31.47,31.47,0,0,0-4.76-.33h-17.2V190.2H236.92V31.28h32.86V96.88h14.35a16.94,16.94,0,0,0,7.45-1.53,15.48,15.48,0,0,0,5.91-5.69l32.09-49.72a21.05,21.05,0,0,1,5.59-6.24A13,13,0,0,1,343,31.28h28.15L330,94.47a26.79,26.79,0,0,1-6.46,7.06,31.85,31.85,0,0,1-8.21,4.44,29,29,0,0,1,11.83,6.08,44.77,44.77,0,0,1,9.09,11.77Z"/><path class="cls-6" d="M445.34,31.28q16.32,0,28.2,3.83a53.68,53.68,0,0,1,19.55,10.68,42,42,0,0,1,11.34,16.26,56,56,0,0,1,3.67,20.48A58.19,58.19,0,0,1,504.27,104a43.89,43.89,0,0,1-11.61,16.76,54,54,0,0,1-19.61,10.9q-11.83,3.89-27.71,3.89H424.53V190.2H391.67V31.28Zm0,79.08q15.44,0,22.62-7.45t7.17-20.37a30.85,30.85,0,0,0-1.81-10.79,21.54,21.54,0,0,0-5.48-8.32,24.7,24.7,0,0,0-9.25-5.31,42.08,42.08,0,0,0-13.25-1.86H424.53v54.1Z"/><path class="cls-6" d="M585.75,96q15.88,0,27.16,3.5T631.26,109a36.68,36.68,0,0,1,10.35,14,43.83,43.83,0,0,1,3.29,16.92,51.56,51.56,0,0,1-4,20.65,43.63,43.63,0,0,1-11.55,15.83,53.18,53.18,0,0,1-18.56,10.19,80.08,80.08,0,0,1-25,3.61H529V31.28h32.86V96Zm0,69a40.63,40.63,0,0,0,12.92-1.75,21.3,21.3,0,0,0,8.21-4.76,16.81,16.81,0,0,0,4.33-7,27.22,27.22,0,0,0,1.26-8.32,30.19,30.19,0,0,0-1.26-9,16.17,16.17,0,0,0-4.27-7,19.63,19.63,0,0,0-8.16-4.44,46.56,46.56,0,0,0-13-1.53H561.88V165Zm113,25.19H665.71V31.28h33.08Z"/><path class="cls-6" d="M907.31,31.28V190.2h-29V92.61q0-3.07.16-6.57t.6-7.12l-45.45,86.2q-3.72,7.12-11.5,7.12h-4.6a12.24,12.24,0,0,1-11.5-7.12L760.33,78.59q.33,3.83.55,7.39t.22,6.63V190.2h-29V31.28h25q2.08,0,3.72.11a9.76,9.76,0,0,1,2.9.6,6.73,6.73,0,0,1,2.3,1.53,12.2,12.2,0,0,1,2,2.9l44.47,84.77q2.08,3.83,3.89,7.89t3.45,8.32q1.64-4.38,3.45-8.54t3.89-8l44.14-84.44a11.25,11.25,0,0,1,2.08-2.9A7.26,7.26,0,0,1,875.72,32a9.62,9.62,0,0,1,2.85-.6q1.59-.11,3.78-.11Z"/><path class="cls-6" d="M243.23,228.85q0,7-3.54,11t-9.84,4q-6.44,0-9.94-3.94t-3.5-11.12q0-7.12,3.51-11t10-3.92q6.28,0,9.81,4T243.23,228.85Zm-23.23,0q0,5.92,2.52,9t7.33,3.06q4.85,0,7.32-3.05t2.47-9q0-5.88-2.46-8.92t-7.29-3q-4.84,0-7.37,3.06T220,228.85Z"/><path class="cls-6" d="M258,243.87a9.33,9.33,0,0,1-7.35-2.92Q248,238,248,232.68t2.64-8.47q2.64-3,7.53-3a14.93,14.93,0,0,1,3.15.34,10.42,10.42,0,0,1,2.47.8l-1,2.81a15.65,15.65,0,0,0-2.39-.73,10.68,10.68,0,0,0-2.29-.29q-6.66,0-6.66,8.49a10.11,10.11,0,0,0,1.63,6.18,5.65,5.65,0,0,0,4.81,2.15,14.72,14.72,0,0,0,5.6-1.18v2.93A11.94,11.94,0,0,1,258,243.87Z"/><path class="cls-6" d="M283.4,224.45h-7.1v19H273v-19h-7v-2.83H283.4Z"/><path class="cls-6" d="M297.9,243.87a9.46,9.46,0,0,1-3.9-.79,7.32,7.32,0,0,1-3-2.42h-.24a29.38,29.38,0,0,1,.24,3.63v9h-3.31V221.62h2.69l.46,3H291a7.69,7.69,0,0,1,3-2.59,9,9,0,0,1,3.89-.8,8.08,8.08,0,0,1,6.71,3q2.36,3,2.36,8.33t-2.4,8.36A8.09,8.09,0,0,1,297.9,243.87ZM297.42,224q-3.35,0-4.85,1.85t-1.54,5.9v.74q0,4.61,1.54,6.59t4.92,2a5.12,5.12,0,0,0,4.44-2.29,10.88,10.88,0,0,0,1.6-6.32,10.47,10.47,0,0,0-1.6-6.27A5.28,5.28,0,0,0,297.42,224Z"/><path class="cls-6" d="M331.62,232.52q0,5.34-2.69,8.34a9.48,9.48,0,0,1-7.44,3,9.85,9.85,0,0,1-5.2-1.38,9.07,9.07,0,0,1-3.51-3.95,13.76,13.76,0,0,1-1.24-6q0-5.34,2.67-8.32a9.45,9.45,0,0,1,7.42-3,9.24,9.24,0,0,1,7.29,3.05A12,12,0,0,1,331.62,232.52Zm-16.65,0q0,4.19,1.67,6.38a6.65,6.65,0,0,0,9.86,0q1.68-2.18,1.68-6.39t-1.68-6.33a5.92,5.92,0,0,0-5-2.16,5.83,5.83,0,0,0-4.91,2.13Q315,228.29,315,232.52Z"/><path class="cls-6" d="M355.14,227.1a4.14,4.14,0,0,1-1.23,3.24,6.71,6.71,0,0,1-3.44,1.49V232a7.09,7.09,0,0,1,4.08,1.63,4.63,4.63,0,0,1,1.29,3.47,5.5,5.5,0,0,1-2.24,4.71q-2.24,1.66-6.55,1.65h-9.63V221.62H347Q355.14,221.62,355.14,227.1Zm-3.23.32a2.37,2.37,0,0,0-1.23-2.26,8,8,0,0,0-3.72-.67h-6.24v6.16h5.6a8.92,8.92,0,0,0,4.33-.76A2.66,2.66,0,0,0,351.91,227.42Zm.62,9.47a2.79,2.79,0,0,0-1.35-2.58,9.11,9.11,0,0,0-4.46-.81h-6v7.2h6.08Q352.53,240.7,352.53,236.89Z"/><path class="cls-6" d="M392.73,243.47h-4.11l-13.48-14.77v14.77h-3.39V214.32h3.39v14.12l13.14-14.12h3.89l-12.9,14.16Z"/><path class="cls-6" d="M406.41,243.87a9.46,9.46,0,0,1-3.9-.79,7.33,7.33,0,0,1-3-2.42h-.24a29.38,29.38,0,0,1,.24,3.63v9h-3.31V221.62h2.69l.46,3h.16a7.69,7.69,0,0,1,3-2.59,9,9,0,0,1,3.89-.8,8.08,8.08,0,0,1,6.71,3q2.36,3,2.36,8.33t-2.4,8.36A8.09,8.09,0,0,1,406.41,243.87ZM405.93,224q-3.35,0-4.84,1.85t-1.54,5.9v.74q0,4.61,1.54,6.59t4.92,2a5.12,5.12,0,0,0,4.44-2.29,10.87,10.87,0,0,0,1.61-6.32,10.46,10.46,0,0,0-1.61-6.27A5.28,5.28,0,0,0,405.93,224Z"/><path class="cls-6" d="M424.57,230.65h6q4.17,0,6.17,1.55a5.47,5.47,0,0,1,2,4.62,6,6,0,0,1-2.12,5q-2.12,1.69-6.25,1.69h-9.07V221.62h3.31Zm0,2.85v7.2h5.6q5.26,0,5.26-3.69a3,3,0,0,0-1.22-2.67,7.62,7.62,0,0,0-4.15-.84Zm21.12,10h-3.31V221.62h3.31Z"/><path class="cls-6" d="M464.05,240.28l.62-1.85.86-2.35,5.92-14.42h4.21v21.81h-2.93v-18l-.4,1.16-1.16,3.05-5.64,13.84h-2.77l-5.64-13.88a40.67,40.67,0,0,1-1.46-4.17v18h-3V221.65h4l5.72,13.86Q463.33,237.71,464.05,240.28Z"/><path class="cls-6" d="M482.24,241.35a3,3,0,0,1,.61-2,2.2,2.2,0,0,1,1.75-.69,2.36,2.36,0,0,1,1.8.69,2.85,2.85,0,0,1,.65,2,2.79,2.79,0,0,1-.66,2,2.62,2.62,0,0,1-3.48.07A2.73,2.73,0,0,1,482.24,241.35Z"/><path class="cls-6" d="M510,216.93a15.51,15.51,0,0,0-6.66,1.52l-1.44-2.87A18.36,18.36,0,0,1,510,213.9a15,15,0,0,1,7.45,1.75,11.46,11.46,0,0,1,4.74,5,17,17,0,0,1,1.62,7.66q0,7.5-3.63,11.52t-10.45,4a22.39,22.39,0,0,1-7.64-1.14v-3q1.66.42,3.37.76a19,19,0,0,0,3.69.34q5.4,0,8.16-2.88t2.91-8.3H505.9v-3h14.3a10.91,10.91,0,0,0-3.14-7.14A9.83,9.83,0,0,0,510,216.93Z"/><path class="cls-6" d="M542.65,221.62h3.63l-9.43,10.55,10.21,11.31h-3.87l-10-11.07v11.07h-3.31V221.62h3.31v10.63Z"/><path class="cls-6" d="M559.84,243.87a9.32,9.32,0,0,1-7.35-2.92q-2.6-2.92-2.6-8.26t2.64-8.47q2.64-3,7.53-3a14.93,14.93,0,0,1,3.15.34,10.42,10.42,0,0,1,2.47.8l-1,2.81a15.6,15.6,0,0,0-2.39-.73,10.67,10.67,0,0,0-2.29-.29q-6.66,0-6.66,8.49a10.11,10.11,0,0,0,1.63,6.18,5.65,5.65,0,0,0,4.82,2.15,14.72,14.72,0,0,0,5.6-1.18v2.93A11.94,11.94,0,0,1,559.84,243.87Z"/><path class="cls-6" d="M583.29,221.62h3.63l-9.43,10.55,10.21,11.31h-3.87l-10-11.07v11.07h-3.31V221.62h3.31v10.63Z"/><path class="cls-6" d="M588.27,221.62h3.55l4.79,12.46a47.21,47.21,0,0,1,2,6.16h.16q.26-1,1.09-3.48t5.41-15.14h3.55l-9.39,24.88a12.4,12.4,0,0,1-3.26,5.23,6.93,6.93,0,0,1-4.58,1.55,13.33,13.33,0,0,1-3-.34v-2.65a11.55,11.55,0,0,0,2.45.24q3.41,0,4.87-3.83l1.22-3.11Z"/><path class="cls-6" d="M622.49,243.87a9.46,9.46,0,0,1-3.9-.79,7.33,7.33,0,0,1-3-2.42h-.24a29.38,29.38,0,0,1,.24,3.63v9h-3.31V221.62H615l.46,3h.16a7.69,7.69,0,0,1,3-2.59,9,9,0,0,1,3.89-.8,8.08,8.08,0,0,1,6.71,3q2.36,3,2.36,8.33t-2.4,8.36A8.09,8.09,0,0,1,622.49,243.87ZM622,224q-3.35,0-4.84,1.85t-1.54,5.9v.74q0,4.61,1.54,6.59t4.92,2a5.12,5.12,0,0,0,4.44-2.29,10.87,10.87,0,0,0,1.61-6.32,10.46,10.46,0,0,0-1.61-6.27A5.28,5.28,0,0,0,622,224Z"/><path class="cls-6" d="M646.08,243.87a9.32,9.32,0,0,1-7.35-2.92q-2.6-2.92-2.6-8.26t2.64-8.47q2.64-3,7.53-3a14.93,14.93,0,0,1,3.15.34,10.42,10.42,0,0,1,2.47.8l-1,2.81a15.6,15.6,0,0,0-2.39-.73,10.67,10.67,0,0,0-2.29-.29q-6.66,0-6.66,8.49a10.11,10.11,0,0,0,1.63,6.18A5.65,5.65,0,0,0,646,241a14.72,14.72,0,0,0,5.6-1.18v2.93A11.94,11.94,0,0,1,646.08,243.87Z"/><path class="cls-6" d="M659.89,221.62v13.86l-.14,3.63-.06,1.14,11.82-18.62h4.13v21.85h-3.09V230.11l.06-2.63.1-2.59-11.8,18.58h-4.13V221.62Z"/><path class="cls-6" d="M685.78,221.62v13.86l-.14,3.63-.06,1.14,11.82-18.62h4.13v21.85h-3.09V230.11l.06-2.63.1-2.59-11.8,18.58h-4.13V221.62Z"/><path class="cls-6" d="M722.46,243.47h-3.31V221.62H737.5v21.85h-3.35v-19H722.46Z"/><path class="cls-6" d="M763.38,232.52q0,5.34-2.69,8.34a9.48,9.48,0,0,1-7.44,3,9.85,9.85,0,0,1-5.2-1.38,9.08,9.08,0,0,1-3.51-3.95,13.76,13.76,0,0,1-1.24-6q0-5.34,2.67-8.32a9.45,9.45,0,0,1,7.42-3,9.24,9.24,0,0,1,7.29,3.05A12,12,0,0,1,763.38,232.52Zm-16.65,0q0,4.19,1.67,6.38a6.65,6.65,0,0,0,9.86,0q1.69-2.18,1.69-6.39t-1.69-6.33a5.92,5.92,0,0,0-5-2.16,5.82,5.82,0,0,0-4.9,2.13Q746.73,228.29,746.73,232.52Z"/><path class="cls-6" d="M801.26,243.47h-4.11l-13.48-14.77v14.77h-3.39V214.32h3.39v14.12l13.14-14.12h3.89l-12.9,14.16Z"/><path class="cls-6" d="M814.94,243.87a9.46,9.46,0,0,1-3.9-.79,7.33,7.33,0,0,1-3-2.42h-.24a29.38,29.38,0,0,1,.24,3.63v9h-3.31V221.62h2.69l.46,3h.16a7.69,7.69,0,0,1,3-2.59,9,9,0,0,1,3.89-.8,8.08,8.08,0,0,1,6.71,3q2.36,3,2.36,8.33t-2.4,8.36A8.09,8.09,0,0,1,814.94,243.87ZM814.46,224q-3.35,0-4.84,1.85t-1.54,5.9v.74q0,4.61,1.54,6.59t4.92,2A5.12,5.12,0,0,0,819,238.8a10.87,10.87,0,0,0,1.61-6.32,10.46,10.46,0,0,0-1.61-6.27A5.28,5.28,0,0,0,814.46,224Z"/><path class="cls-6" d="M833.1,230.65h6q4.17,0,6.17,1.55a5.47,5.47,0,0,1,2,4.62,6,6,0,0,1-2.12,5q-2.12,1.69-6.25,1.69h-9.07V221.62h3.31Zm0,2.85v7.2h5.6q5.26,0,5.26-3.69a3,3,0,0,0-1.22-2.67,7.62,7.62,0,0,0-4.15-.84Zm21.12,10h-3.31V221.62h3.31Z"/><path class="cls-6" d="M872.58,240.28l.62-1.85.86-2.35L880,221.65h4.21v21.81h-2.93v-18l-.4,1.16-1.16,3.05-5.64,13.84h-2.77l-5.64-13.88a40.67,40.67,0,0,1-1.46-4.17v18h-3V221.65h4L871,235.51Q871.87,237.71,872.58,240.28Z"/><path class="cls-6" d="M887.78,221.62h3.55l4.79,12.46a47.21,47.21,0,0,1,2,6.16h.16q.26-1,1.09-3.48t5.41-15.14h3.55l-9.39,24.88a12.4,12.4,0,0,1-3.26,5.23,6.93,6.93,0,0,1-4.58,1.55,13.33,13.33,0,0,1-3-.34v-2.65a11.55,11.55,0,0,0,2.45.24q3.41,0,4.87-3.83l1.22-3.11Z"/></g></g></svg>