<svg xmlns="http://www.w3.org/2000/svg" viewBox="0 0 135.27 22.07"><defs><style>.cls-1{fill:#404040;}</style></defs><title>Ресурс 1</title><g id="Слой_2" data-name="Слой 2"><g id="Layer_3" data-name="Layer 3"><path class="cls-1" d="M134.63,18.79l-8.39-6.18h7.32a1.57,1.57,0,0,0,0-3.15h-7.65l8.48-6.65A1.57,1.57,0,0,0,132.45.33L120.81,9.46h-3.3l8.32-6.52A1.57,1.57,0,0,0,123.88.46l-11.48,9h-3.3l8.15-6.39A1.57,1.57,0,1,0,115.31.59L104,9.46H83.73q-.26,1.57-.52,3.15h20.23l12.18,9A1.57,1.57,0,0,0,117.49,19l-8.74-6.44h3.44l12,8.84a1.57,1.57,0,0,0,1.87-2.53l-8.56-6.31h3.44l11.83,8.71a1.57,1.57,0,0,0,1.87-2.53Z" fill="#ffc91b"/><path class="cls-1" d="M.64,3.28,9,9.47H1.71a1.57,1.57,0,0,0,0,3.15H9.36L.88,19.26a1.57,1.57,0,0,0,1.94,2.48l11.64-9.12h3.3L9.45,19.13a1.57,1.57,0,0,0,1.94,2.48l11.48-9h3.3L18,19A1.57,1.57,0,1,0,20,21.48l11.31-8.87h91.27q.26-1.57.52-3.15H31.82L19.64.49A1.57,1.57,0,0,0,17.78,3l8.74,6.44H23.08L11.07.62A1.57,1.57,0,0,0,9.21,3.16l8.56,6.31H14.34L2.51.75A1.57,1.57,0,0,0,.64,3.28Z" fill="#ffc91b"/></g></g></svg>