<svg xmlns="http://www.w3.org/2000/svg" viewBox="0 0 276.59 28.98"><defs><style>.cls-1{fill:#404040;}</style></defs><title>Ресурс 1</title><g id="Слой_2" data-name="Слой 2"><g id="Layer_3" data-name="Layer 3"><path class="cls-1" d="M275.95,18.79l-8.39-6.18h7.32a1.57,1.57,0,0,0,0-3.15h-7.65l8.48-6.65A1.57,1.57,0,0,0,273.77.33L262.13,9.46h-3.3l8.32-6.52A1.57,1.57,0,0,0,265.2.46l-11.48,9h-3.3l8.15-6.39A1.57,1.57,0,1,0,256.63.59L245.31,9.46H145.63a13.52,13.52,0,0,0-7.4,2,13.52,13.52,0,0,0-7.4-2H31.27L20,.59A1.57,1.57,0,1,0,18,3.07l8.16,6.39H22.87L11.39.46A1.57,1.57,0,0,0,9.45,2.94l8.32,6.52h-3.3L2.82.33A1.57,1.57,0,0,0,.88,2.81L9.36,9.46H1.57a1.57,1.57,0,0,0,0,3.15H9L.64,18.79a1.57,1.57,0,0,0,1.87,2.53l11.83-8.71h3.44L9.21,18.92a1.57,1.57,0,0,0,1.87,2.53l12-8.84h3.44L17.78,19a1.57,1.57,0,0,0,1.87,2.53l12.18-9h99a11.05,11.05,0,0,1,4.85,1,12.5,12.5,0,0,0-3.05,8.13c0,4.25,2.3,7.22,5.61,7.22s5.59-3,5.59-7.22a12.5,12.5,0,0,0-3.05-8.13,11.05,11.05,0,0,1,4.85-1h99.14l12.18,9A1.57,1.57,0,0,0,258.81,19l-8.74-6.44h3.44l12,8.84a1.57,1.57,0,0,0,1.87-2.53l-8.56-6.31h3.44l11.83,8.71a1.57,1.57,0,0,0,1.87-2.53Zm-137.74,7c-1.69,0-2.44-2-2.44-4.07a9.32,9.32,0,0,1,2.31-6.1l.15-.16.14.16a9.31,9.31,0,0,1,2.31,6.1C140.68,23.79,139.93,25.84,138.21,25.84Z"/></g></g></svg>